#!OML:ASF I:\golf\golf\golf 2\Subject 1\2002-09-07\Subject1.ASF
:FULLY-SPECIFIED
:DEGREES
478
root 1.28369 18.0846 -9.83444 7.92851 -3.44105 -6.23284
lowerback -5.60887 1.51967 -1.79181
upperback -1.09603 2.05147 3.73062
thorax 1.81308 1.01351 5.01274
lowerneck -22.2649 -2.44825 -0.87793
upperneck 16.2484 -2.68219 -1.78693
head 8.7138 -1.51768 -0.836713
rclavicle -9.74666e-015 -1.25234e-014
rhumerus -25.6104 -4.0838 -82.2858
rradius 27.2634
rwrist -10.8909
rhand -20.1546 10.29
rfingers 7.12502
rthumb 6.19055 -19.5995
lclavicle -9.74666e-015 -1.25234e-014
lhumerus -32.9881 7.62166 85.3529
lradius 22.1173
lwrist -3.57224
lhand -8.15145 33.739
lfingers 7.12502
lthumb 17.7631 -297.052
rfemur -14.7209 0.813047 23.2545
rtibia 25.8146
rfoot -13.6029 -3.65396
rtoes 2.8171
lfemur -14.0089 3.48921 -15.2865
ltibia 27.3596
lfoot -16.8034 4.07103
ltoes -1.52312
479
root 1.25573 18.0881 -9.84006 7.91582 -3.19713 -6.24433
lowerback -5.66298 1.48696 -1.7287
upperback -1.12303 2.00576 3.6713
thorax 1.82437 0.991107 4.91304
lowerneck -22.1211 -2.48243 -0.928011
upperneck 16.1837 -2.75007 -1.62617
head 8.66961 -1.5343 -0.780084
rclavicle 2.1183e-015 -1.82882e-014
rhumerus -25.324 -3.7295 -82.5704
rradius 27.386
rwrist -10.8847
rhand -20.2109 10.2403
rfingers 7.12502
rthumb 6.13624 -19.6509
lclavicle 2.1183e-015 -1.82882e-014
lhumerus -32.9294 6.90049 85.8587
lradius 22.3223
lwrist -2.30162
lhand -8.62537 33.4439
lfingers 7.12502
lthumb 17.307 -297.307
rfemur -14.6514 0.526688 23.4113
rtibia 25.6866
rfoot -13.5268 -3.65782
rtoes 2.76673
lfemur -14.0439 3.42753 -15.1256
ltibia 27.3446
lfoot -16.8703 3.90317
ltoes -1.90812
480
root 1.22658 18.0882 -9.84251 7.80421 -3.01702 -6.19931
lowerback -5.65717 1.4187 -1.83347
upperback -1.09228 1.91989 3.6905
thorax 1.85704 0.946509 4.98766
lowerneck -22.0773 -2.45501 -1.09871
upperneck 16.1697 -2.68824 -1.4886
head 8.6624 -1.50064 -0.696468
rclavicle 7.3923e-015 7.7526e-015
rhumerus -24.9948 -3.13972 -82.8049
rradius 27.5462
rwrist -10.9879
rhand -20.5129 10.2164
rfingers 7.12502
rthumb 5.84466 -19.6829
lclavicle 7.3923e-015 7.7526e-015
lhumerus -32.8495 6.37278 86.4099
lradius 22.5348
lwrist -1.21753
lhand -9.06198 33.6376
lfingers 7.12502
lthumb 16.8868 -297.077
rfemur -14.4337 0.364197 23.4975
rtibia 25.5281
rfoot -13.4203 -3.70006
rtoes 3.0257
lfemur -13.9204 3.46366 -15.0339
ltibia 27.2485
lfoot -16.9407 3.75989
ltoes -2.47267
481
root 1.19812 18.0886 -9.84901 7.70003 -2.8369 -6.18497
lowerback -5.69172 1.33255 -1.93897
upperback -1.00268 1.80785 3.76142
thorax 1.97436 0.885983 5.11801
lowerneck -22.2159 -2.432 -1.30173
upperneck 16.2378 -2.60571 -1.40787
head 8.71417 -1.46608 -0.627721
rclavicle 2.596e-014 1.5704e-014
rhumerus -24.5261 -2.60852 -82.9819
rradius 27.6591
rwrist -11.0526
rhand -20.6529 10.2441
rfingers 7.12502
rthumb 5.70951 -19.659
lclavicle 2.596e-014 1.5704e-014
lhumerus -32.6661 6.12905 86.8766
lradius 22.741
lwrist -0.626921
lhand -9.13382 33.7868
lfingers 7.12502
lthumb 16.8176 -296.922
rfemur -14.2439 0.244603 23.6079
rtibia 25.3947
rfoot -13.3793 -3.7132
rtoes 4.07355
lfemur -13.8063 3.52946 -14.9187
ltibia 27.1112
lfoot -16.9312 3.57674
ltoes -2.86893
482
root 1.17342 18.0983 -9.85612 7.69152 -2.61464 -6.17017
lowerback -5.77087 1.28048 -1.97727
upperback -1.00607 1.74033 3.78375
thorax 2.02014 0.851045 5.16134
lowerneck -22.2341 -2.47085 -1.35471
upperneck 16.291 -2.63571 -1.43292
head 8.736 -1.48661 -0.632731
rclavicle -2.23757e-014 -1.78906e-015
rhumerus -24.2076 -2.21678 -83.1392
rradius 27.7924
rwrist -11.1025
rhand -20.7722 10.1699
rfingers 7.12502
rthumb 5.5943 -19.7362
lclavicle -2.23757e-014 -1.78906e-015
lhumerus -32.569 5.74521 87.302
lradius 22.9431
lwrist -0.130806
lhand -9.25835 33.7337
lfingers 7.12502
lthumb 16.6977 -296.964
rfemur -14.1613 0.0919305 23.6918
rtibia 25.2606
rfoot -13.408 -3.62265
rtoes 5.48874
lfemur -13.7975 3.52756 -14.8333
ltibia 26.9429
lfoot -16.8195 3.45832
ltoes -3.62839
